# xmcd CD database file
#
# Track frame offsets:
#	150
#	21423
#	42673
#	55133
#	67638
#	84288
#	100938
#	118059
#	134872
#	147963
#	161042
#	176725
#	192469
#	206013
#	219717
#
# Disc length: 2948 seconds
#
# Revision: 0
# Processed by: cddbd v1.5.2PL0 Copyright (c) Steve Scherf et al.
# Submitted via: CDex 1.51
#
DISCID=e80b820f
DTITLE=Hal Leonard Jazz Play Along - Volume 1A - Maiden Voyage CD2/2
DYEAR=1900
DGENRE=Jazz
TTITLE0=Maiden Voyage (Split)
TTITLE1=Maiden Voyage (Stereo)
TTITLE2=Now's The Time (Split)
TTITLE3=Now's The Time (Stereo)
TTITLE4=Recorda-Me (Split)
TTITLE5=Recorda-Me (Stereo)
TTITLE6=Satin Doll (Split)
TTITLE7=Satin Doll (Stereo)
TTITLE8=Solar (Split)
TTITLE9=Solar (Stereo)
TTITLE10=Song For My Father (Split)
TTITLE11=Song For My Father (Stereo)
TTITLE12=Yesterdays (Split)
TTITLE13=Yesterdays (Stereo)
TTITLE14=Bb Tuning Notes
EXTD=
EXTT0=
EXTT1=
EXTT2=
EXTT3=
EXTT4=
EXTT5=
EXTT6=
EXTT7=
EXTT8=
EXTT9=
EXTT10=
EXTT11=
EXTT12=
EXTT13=
EXTT14=
PLAYORDER=
